<svg width="200" height="200" viewBox="0 0 200 200" fill="none" xmlns="http://www.w3.org/2000/svg">
<path d="M52.1727 67.9826C23.5916 76.9653 24.4082 96.972 24.4082 97.7886L173.847 94.1139C170.253 66.6761 122.809 59.2722 99.5357 59C93.2751 59 75.0376 60.7965 52.1727 67.9826Z" fill="#5A4EDB"/>
<path d="M98.5308 63.8997C29.9362 66.5128 22.4532 92.4808 24.22 106.363C26.5065 124.328 41.2326 136.169 48.3098 139.844C61.7021 143.11 64.6418 137.802 68.3165 132.494C88.7316 113.712 119.354 122.287 128.337 130.044C132.42 133.311 132.175 136.179 134.461 137.802C148.575 147.822 162.2 132.711 168.759 122.287C194.89 77.5369 132.828 64.7163 98.5308 63.8997Z" fill="#1A0080"/>
<path d="M166.497 90.4393C160.72 81.1074 140.91 89.4866 132.2 94.5223C103.619 110.446 113.418 117.387 119.542 121.878C124.442 125.472 144.041 117.387 144.041 117.387C144.041 117.387 177.113 107.588 166.497 90.4393Z" fill="#191B6B" stroke="black"/>
<circle cx="155.881" cy="100.238" r="6.12452" fill="#6E6E6E"/>
<circle cx="140.366" cy="106.771" r="6.12452" fill="#6E6E6E"/>
<circle cx="124.85" cy="113.304" r="6.12452" fill="#6E6E6E"/>
<path d="M36.249 100.647C36.5756 90.5209 47.5453 85.2674 52.9893 83.9064C60.747 83.4981 66.8715 85.1313 74.221 90.4392C81.5704 95.7471 86.0617 109.629 78.304 117.795C70.5463 125.961 55.4391 128.411 46.8648 122.287C38.2905 116.162 35.8407 113.304 36.249 100.647Z" fill="#191B6B" stroke="black"/>
<circle cx="59.1138" cy="105.546" r="13.0656" fill="#3B3B3B"/>
<path d="M60.3806 94.9304C61.485 94.9306 62.3806 95.826 62.3806 96.9304V102.28H67.7292C68.8338 102.28 69.7292 103.175 69.7292 104.28V106.813C69.729 107.918 68.8337 108.813 67.7292 108.813H62.3806V114.978C62.3806 116.083 61.485 116.978 60.3806 116.978H57.8474C56.7429 116.978 55.8474 116.083 55.8474 114.978V108.813H49.6814C48.577 108.813 47.6816 107.918 47.6814 106.813V104.28C47.6814 103.175 48.5768 102.28 49.6814 102.28H55.8474V96.9304C55.8474 95.8259 56.7429 94.9304 57.8474 94.9304H60.3806Z" fill="#696969"/>
<circle cx="59.1139" cy="105.546" r="2.44981" fill="#323232"/>
<path d="M67.2792 97.3672L66.3974 99.6373L65.0091 98.249L67.2792 97.3672Z" fill="#323232"/>
<path d="M80.3455 106.771L77.8957 107.832L77.8957 105.71L80.3455 106.771Z" fill="#D10000"/>
<path d="M58.7055 85.9479L59.7663 88.3977H57.6447L58.7055 85.9479Z" fill="#D10000"/>
<path d="M37.0655 105.138L39.5153 104.077L39.5153 106.199L37.0655 105.138Z" fill="#D10000"/>
<path d="M59.5221 124.328L58.4613 121.878L60.5829 121.878L59.5221 124.328Z" fill="#D10000"/>
<path d="M67.2792 112.532L65.0091 111.65L66.3974 110.262L67.2792 112.532Z" fill="#323232"/>
<path d="M50.9327 112.532L51.8146 110.262L53.2028 111.651L50.9327 112.532Z" fill="#323232"/>
<path d="M50.9327 97.3655L53.2029 98.2473L51.8146 99.6356L50.9327 97.3655Z" fill="#323232"/>
<circle cx="73.8127" cy="117.795" r="0.816603" fill="#D9D9D9"/>
<circle cx="45.2316" cy="118.612" r="0.816603" fill="#D9D9D9"/>
<circle cx="44.415" cy="91.6643" r="0.816603" fill="#D9D9D9"/>
<circle cx="72.9961" cy="93.2973" r="0.816603" fill="#D9D9D9"/>
<rect x="121.342" y="88.1034" width="18.1249" height="6.17629" rx="3" transform="rotate(-28.7387 121.342 88.1034)" fill="#01082D"/>
<path d="M129.75 89.6227C125.177 92.2358 124.034 90.9837 124.034 90.031L124.442 87.5812L136.283 81.0483L137.099 83.9064C137.916 86.7646 135.466 86.3563 129.75 89.6227Z" fill="#D9D9D9"/>
</svg>
