<svg width="950" height="1074" viewBox="0 0 950 1074" fill="none" xmlns="http://www.w3.org/2000/svg">
<path d="M446 152.023C561.432 152.023 666.622 195.876 745.818 267.83L723.251 322.321C652.434 251.109 554.366 207.023 446 207.023C230.057 207.023 55 382.08 55 598.023C55 777.569 176.018 928.849 340.935 974.745L340.254 991.753L519.759 1037.95C495.766 1041.94 471.126 1044.02 446 1044.02C199.681 1044.02 0 844.342 0 598.023C0 351.704 199.681 152.023 446 152.023ZM875.319 476.777C886.185 515.329 892 555.997 892 598.023C892 790.172 770.488 953.937 600.115 1016.68L639.549 937.834C757.494 870.51 837 743.552 837 598.023C837 581.458 835.968 565.133 833.968 549.109L853.055 510.947L865.689 514.199L875.319 476.777ZM792.169 316.786C817.734 348.215 839.103 383.193 855.427 420.866L784.782 402.685C779.459 393.472 773.77 384.496 767.736 375.777L792.169 316.786Z" fill="#A113B7"/>
<path d="M346.799 981.169L373.571 388.724L834.659 507.393L572.097 1039.15L346.799 981.169Z" fill="#A113B7" stroke="#A113B7"/>
<rect x="0.255307" y="0.663624" width="42.6794" height="262.477" transform="matrix(0.90569 0.396937 -0.395076 0.93031 781.85 197.897)" fill="#A113B7" stroke="#A113B7"/>
<rect x="0.683192" y="0.121767" width="42.6346" height="139.664" transform="matrix(0.824227 -0.584532 0.542157 0.828067 708.646 124.95)" fill="#A113B7" stroke="#A113B7"/>
<rect x="375.616" y="312.418" width="509.286" height="61.5095" transform="rotate(14.4329 375.616 312.418)" fill="#A113B7" stroke="#A113B7"/>
</svg>
